<svg width="216" height="182" viewBox="0 0 216 182" fill="none" xmlns="http://www.w3.org/2000/svg">
<path d="M188.443 113.81C188.443 113.81 188.383 113.87 188.343 113.91C185.723 116.52 181.473 116.46 178.923 113.79C177.183 111.96 175.473 110.16 173.843 108.45C171.963 106.47 169.043 105.86 166.523 106.92C161.553 109.01 156.893 110.97 152.133 112.97C149.693 114 148.103 116.39 148.103 119.04V127.53C148.103 131.16 145.153 134.11 141.523 134.11H141.253C137.623 134.11 134.673 131.16 134.673 127.53V119.05C134.673 116.1 132.713 113.47 129.853 112.71C124.113 111.18 118.803 108.81 113.933 105.37C111.253 103.48 107.613 103.76 105.343 106.12C102.673 108.88 100.013 111.63 97.3527 114.37C94.6927 117.11 90.5727 117.04 87.9727 114.44C87.7427 114.21 87.5127 113.98 87.2827 113.75C84.7027 111.17 84.7127 106.97 87.3227 104.41C91.0827 100.71 94.8427 97 98.7027 93.42C100.553 91.7 100.413 90.46 99.4627 88.3C98.0327 85.08 96.8527 81.74 95.6327 78.26C94.7027 75.63 92.2127 73.86 89.4227 73.86H80.8427C77.2127 73.86 74.2627 70.91 74.2627 67.28V67.01C74.2627 63.38 77.2127 60.43 80.8427 60.43H89.3427C92.0327 60.43 94.4527 58.79 95.4527 56.29C97.1027 52.17 98.6727 48.24 100.103 44.25C100.393 43.44 99.7827 41.93 99.1027 41.22C95.3727 37.36 91.5827 33.55 87.8327 29.8C85.2527 27.22 85.2727 23.03 87.8727 20.47L88.0527 20.29C90.6527 17.72 94.8427 17.76 97.3927 20.38C99.9427 23 102.463 25.6 105.093 28.29C107.363 30.62 110.993 30.94 113.633 29.05C118.573 25.51 123.863 22.98 129.673 21.45C132.533 20.7 134.493 18.07 134.493 15.11V6.58002C134.493 2.95002 137.443 0 141.073 0H141.343C144.973 0 147.923 2.95002 147.923 6.58002V14.99C147.923 17.65 149.523 20.05 151.983 21.07C156.633 23 161.163 24.89 165.813 26.82C168.313 27.86 171.193 27.26 173.073 25.32C174.713 23.62 176.433 21.84 178.183 20.03C180.773 17.35 185.083 17.35 187.663 20.03C187.723 20.09 187.783 20.16 187.843 20.22C190.373 22.85 190.283 27.03 187.643 29.54C185.963 31.15 184.273 32.76 182.633 34.32C180.653 36.21 180.053 39.12 181.113 41.64C183.233 46.68 185.213 51.37 187.233 56.16C188.263 58.6 190.653 60.19 193.303 60.19H201.763C205.393 60.19 208.343 63.14 208.343 66.77V67.04C208.343 70.67 205.393 73.62 201.763 73.62H193.383C190.733 73.62 188.333 75.22 187.313 77.66C185.323 82.42 183.373 87.08 181.323 91.98C180.263 94.53 180.893 97.47 182.913 99.34C184.633 100.93 186.433 102.61 188.283 104.33C191.023 106.87 191.103 111.18 188.453 113.82L188.443 113.81ZM174.913 66.95C174.863 48.52 159.713 33.4 141.283 33.41C122.693 33.41 107.563 48.66 107.663 67.28C107.763 85.69 122.993 100.74 141.443 100.66C159.863 100.58 174.953 85.38 174.913 66.95Z" fill="#FFDE00"/>
<path d="M202.043 127.76H215.263C215.263 139.01 212.143 149.14 205.783 158.1C195.093 173.15 180.373 181.24 161.863 181.35C125.423 181.57 88.9727 181.55 52.5327 181.36C27.2027 181.23 4.67273 161.57 0.702729 136.62C-3.18727 112.19 9.33273 88.72 31.8127 78.58C33.9727 77.61 34.6627 76.19 35.0927 74.07C38.2427 58.37 46.0527 45.43 58.6527 34.88C61.5627 38.39 64.3127 41.72 67.1127 45.1C64.2627 48.11 61.3127 50.87 58.7827 53.97C52.1027 62.16 48.3827 71.64 47.2027 82.11C46.7827 85.9 44.8427 88.05 41.2527 89.35C27.3127 94.42 18.3127 104.09 14.7827 118.63C9.83273 138.98 22.3927 160.62 42.5927 166.16C46.5327 167.24 50.7327 167.85 54.8227 167.87C90.0327 168 125.243 167.97 160.453 167.94C180.483 167.92 196.223 155.57 200.913 136.19C201.563 133.5 201.673 130.69 202.063 127.76H202.043Z" fill="#009FE3"/>
</svg>
