<svg width="242" height="186" viewBox="0 0 242 186" fill="none" xmlns="http://www.w3.org/2000/svg">
<path d="M235.158 60.19H226.698C224.048 60.19 221.658 58.6 220.628 56.16C218.608 51.37 216.638 46.68 214.508 41.64C213.448 39.12 214.048 36.21 216.028 34.32C217.658 32.76 219.348 31.15 221.038 29.54C223.678 27.02 223.768 22.85 221.238 20.22C221.178 20.16 221.118 20.09 221.058 20.03C218.468 17.34 214.168 17.34 211.578 20.03C209.828 21.84 208.118 23.62 206.468 25.32C204.588 27.27 201.708 27.86 199.208 26.82C194.558 24.89 190.018 23 185.378 21.07C182.918 20.05 181.318 17.65 181.318 14.99V6.58C181.318 2.95 178.368 0 174.738 0H174.468C170.838 0 167.888 2.95 167.888 6.58V15.11C167.888 18.07 165.928 20.7 163.068 21.45C157.258 22.98 151.968 25.51 147.028 29.05C144.388 30.94 140.748 30.62 138.488 28.29C135.868 25.6 133.298 22.95 130.788 20.38C128.238 17.76 124.048 17.72 121.448 20.29L121.268 20.47C118.668 23.03 118.658 27.22 121.238 29.8C124.988 33.55 128.778 37.35 132.508 41.22C133.198 41.93 133.798 43.44 133.508 44.25C132.818 46.18 132.088 48.09 131.338 50.02C131.658 50.1 131.978 50.24 132.298 50.44C134.298 51.74 135.938 53.25 137.308 54.92C139.048 56.43 140.578 58.24 141.818 60.2C145.008 44.95 158.558 33.42 174.718 33.41C193.148 33.41 208.298 48.52 208.348 66.95C208.378 77.56 203.378 87.09 195.618 93.29C195.648 93.3 195.678 93.31 195.718 93.33C197.268 94.01 198.508 95.11 199.188 96.45C201.148 98.55 202.788 100.98 203.788 103.59C204.158 104.57 204.388 105.63 204.448 106.69C205.498 107.01 206.478 107.6 207.278 108.44C208.908 110.16 210.618 111.95 212.358 113.78C214.908 116.46 219.158 116.51 221.778 113.9C221.808 113.87 221.838 113.84 221.878 113.8C224.518 111.16 224.438 106.85 221.708 104.31C219.858 102.59 218.048 100.92 216.338 99.32C214.318 97.44 213.678 94.5 214.748 91.96C216.798 87.06 218.748 82.4 220.738 77.64C221.758 75.19 224.158 73.6 226.808 73.6H235.188C238.818 73.6 241.768 70.65 241.768 67.02V66.75C241.768 63.12 238.818 60.17 235.188 60.17L235.158 60.19Z" fill="#FFDE00"/>
<path d="M107.818 185.01C89.2077 185.01 70.5877 185.1 51.9777 184.99C27.5177 184.84 6.53774 167.38 1.23774 143.47C-4.22226 118.86 8.81774 93.43 31.7577 83.63C33.7877 82.76 34.6077 81.51 34.9777 79.47C39.8877 52.35 63.0377 30.33 90.3177 26.79C125.088 22.27 155.328 42.71 164.208 76.79C164.668 78.57 165.438 79.25 167.378 79.37C188.798 80.73 209.108 98.34 213.768 119.48C219.708 146.39 206.518 171.77 180.948 181.57C175.438 183.68 169.228 184.75 163.308 184.88C144.818 185.29 126.308 185.03 107.808 185.03V185L107.818 185.01ZM106.608 171.87C106.608 171.78 106.608 171.69 106.608 171.6C125.218 171.6 143.848 172.23 162.418 171.46C191.408 170.26 208.728 137.33 193.908 112.33C186.288 99.4801 174.738 93.0701 159.858 92.3601C154.648 92.1101 152.648 90.0301 151.988 85.0201C147.978 54.4501 116.198 33.2501 86.5377 41.6701C64.0777 48.0401 50.9677 63.13 47.2577 86.12C46.4977 90.85 44.4677 93.3801 40.0177 94.9601C20.0277 102.05 9.30774 124.3 16.0177 144.31C21.8077 161.59 36.3077 171.77 55.4877 171.85C72.5277 171.93 89.5677 171.87 106.608 171.87Z" fill="#009FE3"/>
</svg>
