<svg width="215" height="204" viewBox="0 0 215 204" fill="none" xmlns="http://www.w3.org/2000/svg">
<path d="M159.043 157.055V144.455C174.193 143.225 185.953 136.805 193.403 123.445C206.803 99.3954 190.033 67.9954 162.703 66.0054C153.073 65.3055 152.543 64.8354 150.663 55.5154C145.703 30.8854 123.363 13.1954 97.9429 13.7754C72.3129 14.3654 50.9429 32.9954 47.2629 58.4154C46.4929 63.7454 44.3029 66.5054 39.2229 68.3954C22.5329 74.5854 11.9329 92.2254 14.1029 109.195C16.4929 127.875 31.1729 142.205 49.9029 144.125C50.7329 144.205 51.5529 144.255 52.8329 144.355V157.005C43.0529 157.945 34.0729 155.125 25.9129 150.155C8.0029 139.255 -1.0271 122.945 0.092904 102.065C1.1929 81.6054 11.7629 66.6454 30.1529 57.5354C32.9929 56.1354 34.3629 54.6454 35.0729 51.4854C41.5929 22.4654 67.1829 0.895446 95.7629 0.0354458C127.533 -0.924554 154.003 17.6854 162.613 47.3654C163.723 51.1854 165.273 52.5854 169.223 53.0754C195.893 56.4154 215.993 81.5354 214.013 108.655C212.013 136.025 188.563 157.875 161.823 157.275C161.013 157.255 160.213 157.155 159.043 157.065V157.055Z" fill="#009FE3"/>
<path d="M99.2629 137.945H112.353V150.965C108.693 150.965 105.243 151.165 101.843 150.835C100.903 150.745 99.4829 149.135 99.3829 148.115C99.0629 144.865 99.2629 141.565 99.2629 137.955V137.945Z" fill="#009FE3"/>
<path d="M99.9428 202.965C99.5928 202.385 99.4328 202.245 99.4328 202.105C99.4228 188.505 96.3828 189.635 112.323 190.605V202.965H99.9428Z" fill="#009FE3"/>
<path d="M85.683 150.695H73.303V137.915H85.683V150.695Z" fill="#009FE3"/>
<path d="M138.703 138.075V150.655H125.943V138.075H138.703Z" fill="#009FE3"/>
<path d="M60.1528 164.345H72.8128V176.745H60.1528V164.345Z" fill="#009FE3"/>
<path d="M98.973 176.845H86.313V164.435H98.973V176.845Z" fill="#009FE3"/>
<path d="M151.813 164.445V176.795H139.213V164.445H151.813Z" fill="#009FE3"/>
<path d="M85.7828 203.015H73.3628V190.535H85.7828V203.015Z" fill="#009FE3"/>
<path d="M138.793 190.535V202.925H126.073V190.535H138.793Z" fill="#009FE3"/>
<path d="M125.343 176.865H112.923V164.505H125.343V176.865Z" fill="#009FE3"/>
</svg>
