<svg width="201" height="108" viewBox="0 0 201 108" fill="none" xmlns="http://www.w3.org/2000/svg">
<g clip-path="url(#clip0_72_22)">
<path d="M86.08 16.11C61.53 16.11 36.98 16.11 12.43 16.11C6.55 16.11 0 16.34 0 8.13003C0 0.0400257 6.34 2.53177e-05 12.34 2.53177e-05C62.11 0.0300253 111.89 2.53177e-05 161.66 2.53177e-05C167.54 2.53177e-05 174.06 -0.169974 174.07 8.03003C174.08 16.15 167.73 16.16 161.75 16.16C136.53 16.12 111.3 16.15 86.08 16.15C86.08 16.14 86.08 16.13 86.08 16.12V16.11Z" fill="#009FE3"/>
<path d="M106.19 46.64C81.64 46.64 57.09 46.64 32.54 46.64C26.66 46.64 20.12 46.88 20.11 38.66C20.11 30.57 26.45 30.54 32.45 30.54C82.22 30.56 132 30.54 181.77 30.54C187.65 30.54 194.17 30.37 194.18 38.57C194.19 46.69 187.84 46.7 181.86 46.7C156.64 46.66 131.41 46.69 106.19 46.69C106.19 46.68 106.19 46.67 106.19 46.66V46.64Z" fill="#009FE3"/>
<path d="M112.95 77.18C88.4 77.18 63.85 77.18 39.3 77.18C33.42 77.18 26.88 77.42 26.87 69.2C26.87 61.11 33.21 61.08 39.21 61.08C88.98 61.1 138.76 61.08 188.53 61.08C194.41 61.08 200.93 60.91 200.94 69.11C200.95 77.23 194.6 77.24 188.62 77.24C163.4 77.2 138.17 77.23 112.95 77.23C112.95 77.22 112.95 77.21 112.95 77.2V77.18Z" fill="#009FE3"/>
<path d="M92.56 107.72C68.01 107.72 43.46 107.72 18.91 107.72C13.03 107.72 6.48998 107.96 6.47998 99.74C6.47998 91.65 12.82 91.62 18.82 91.62C68.59 91.64 118.37 91.62 168.14 91.62C174.02 91.62 180.54 91.45 180.55 99.65C180.56 107.77 174.21 107.78 168.23 107.78C143.01 107.74 117.78 107.77 92.56 107.77C92.56 107.76 92.56 107.75 92.56 107.74V107.72Z" fill="#009FE3"/>
</g>
<defs>
<clipPath id="clip0_72_22">
<rect width="200.94" height="107.77" fill="white"/>
</clipPath>
</defs>
</svg>
