<svg width="219" height="217" viewBox="0 0 219 217" fill="none" xmlns="http://www.w3.org/2000/svg">
<g clip-path="url(#clip0_77_19)">
<path d="M151.111 91.1565C143.486 126.422 109.243 148.473 74.1083 140.763C39.2086 133.104 17.1645 98.545 24.7775 63.4308C32.2912 28.7759 66.8313 6.58441 101.678 14.0167C136.837 21.5167 158.776 55.7567 151.119 91.1684L151.111 91.1565ZM137.31 88.2233C143.263 60.5974 126.297 33.8273 99.0441 27.8527C71.9301 21.8979 44.4969 39.3749 38.6409 66.3158C32.6581 93.8432 50.0752 121.223 77.2752 127.063C104.593 132.929 131.416 115.576 137.31 88.2233Z" fill="black"/>
<path d="M182.351 199.966C183.734 203.652 183.166 207.887 180.589 210.86C179.213 212.445 177.507 213.427 175.394 213.972C171.111 215.092 167.432 213.796 164.685 210.409C162.907 208.224 161.512 205.732 159.982 203.345C148.081 184.852 136.181 166.36 124.316 147.844C120.76 142.287 121.18 140.536 126.681 136.907C137.372 129.857 137.511 128.741 145.173 140.956C156.767 159.444 168.814 177.641 180.492 196.076C181.278 197.31 181.873 198.676 182.351 199.966Z" fill="black"/>
</g>
<defs>
<clipPath id="clip0_77_19">
<rect width="181.09" height="184.69" fill="white" transform="translate(0.150024 177.329) rotate(-77.7991)"/>
</clipPath>
</defs>
</svg>
