<svg width="216" height="176" viewBox="0 0 216 176" fill="none" xmlns="http://www.w3.org/2000/svg">
<path d="M69.6462 20.6991C71.8362 24.9191 73.8362 28.7691 75.8662 32.6791C72.9062 34.7191 69.9362 36.5091 67.2562 38.6691C55.5262 48.1091 48.8762 60.4291 47.2062 75.3591C46.7462 79.4591 44.7362 81.6591 40.9062 83.0491C26.2462 88.3891 16.9262 98.8791 14.3362 114.159C10.1062 139.039 27.7562 158.279 48.1362 160.919C51.2362 161.319 54.3862 161.499 57.5062 161.509C91.7062 161.549 125.896 161.539 160.096 161.529C174.256 161.529 185.726 156.019 194.186 144.589C198.766 138.409 201.046 131.339 201.676 123.709C201.736 122.949 201.806 122.199 201.886 121.299H215.726C214.796 126.539 214.386 131.769 212.916 136.679C206.116 159.329 185.716 174.799 162.056 174.939C125.396 175.149 88.7262 175.179 52.0662 174.919C27.9462 174.749 6.30624 156.599 1.29624 133.089C-4.16376 107.459 7.93624 83.0791 31.7262 72.1591C34.1962 71.0291 34.4362 69.1591 34.8362 67.1691C38.1162 51.0291 46.3462 37.9392 59.1962 27.7592C62.4062 25.2092 65.9962 23.1391 69.6662 20.6891L69.6462 20.6991Z" fill="#009FE3"/>
<path d="M182.006 40.2292C196.576 41.3492 207.296 48.1091 212.906 61.8292C221.576 83.0392 205.816 107.259 182.906 107.609C159.816 107.959 136.726 107.869 113.636 107.629C98.1362 107.469 85.1762 96.6592 81.4562 81.4892C77.9762 67.2892 85.0762 51.6092 98.3662 44.5092C100.216 43.5192 100.856 42.4691 100.886 40.4091C101.226 21.2191 113.036 6.24922 131.606 1.26922C152.196 -4.25078 174.716 8.79916 180.066 29.4592C180.956 32.8892 181.346 36.4592 182.016 40.2392L182.006 40.2292ZM148.206 94.2192C159.196 94.2192 170.176 94.3291 181.166 94.1891C191.086 94.0591 199.206 87.6691 201.116 78.8191C203.176 69.2891 199.176 59.7791 190.396 56.1991C185.816 54.3291 180.406 54.2891 175.336 53.9291C169.586 53.5291 166.646 50.4192 167.676 44.7292C168.566 39.8392 168.016 35.1391 166.316 30.5591C161.516 17.5591 147.516 10.5191 133.836 14.1891C121.466 17.4991 112.566 30.9292 114.566 43.2592C115.846 51.1392 115.056 52.4992 107.636 55.2092C97.6662 58.8492 92.2662 69.6191 95.3662 79.6591C98.1562 88.6991 105.436 94.1191 115.236 94.1992C126.216 94.2891 137.206 94.2192 148.196 94.2192H148.206Z" fill="#009FE3"/>
</svg>
