<svg width="215" height="215" viewBox="0 0 215 215" fill="none" xmlns="http://www.w3.org/2000/svg">
<path d="M53.457 168.26V181.5C42.477 181.36 32.547 178.45 23.697 172.28C7.277 160.81 -1.003 144.85 0.0969998 124.95C1.267 103.81 11.967 88.29 31.127 78.98C33.627 77.77 34.387 76.14 34.897 73.71C38.027 58.62 45.477 46.04 57.227 36.05C57.547 35.77 57.937 35.57 58.557 35.15C61.367 38.56 64.107 41.89 66.857 45.22C63.867 48.4 60.837 51.24 58.267 54.44C51.817 62.49 48.147 71.77 47.017 82.01C46.587 85.92 44.647 88.14 40.937 89.51C21.507 96.68 10.917 113.93 14.107 134.5C17.007 153.19 32.127 165.35 47.677 167.45C49.547 167.7 51.417 167.97 53.457 168.26Z" fill="#009FE3"/>
<path d="M161.407 181.41V168.41C185.687 165.82 199.187 152.37 201.927 127.88H214.727C215.967 154.03 193.067 181.49 161.407 181.42V181.41Z" fill="#009FE3"/>
<path d="M74.0271 169.91H87.0971V214.82H74.0271V169.91Z" fill="#009FE3"/>
<path d="M113.947 215.01H100.867V170.09H113.947V215.01Z" fill="#009FE3"/>
<path d="M127.777 214.94V170.07H140.877V214.94H127.777Z" fill="#009FE3"/>
<path d="M188.027 113.81C188.027 113.81 187.967 113.87 187.927 113.91C185.307 116.52 181.057 116.46 178.507 113.79C176.767 111.96 175.057 110.16 173.427 108.45C171.547 106.47 168.627 105.86 166.107 106.92C161.137 109.01 156.477 110.97 151.717 112.97C149.277 114 147.687 116.39 147.687 119.04V127.53C147.687 131.16 144.737 134.11 141.107 134.11H140.837C137.207 134.11 134.257 131.16 134.257 127.53V119.05C134.257 116.1 132.297 113.47 129.437 112.71C123.697 111.18 118.387 108.81 113.517 105.37C110.837 103.48 107.197 103.76 104.927 106.12C102.257 108.88 99.5969 111.63 96.9369 114.37C94.2769 117.11 90.1569 117.04 87.5569 114.44C87.3269 114.21 87.0969 113.98 86.8669 113.75C84.2869 111.17 84.2969 106.97 86.9069 104.41C90.6669 100.71 94.4269 97 98.2869 93.42C100.137 91.7 99.9969 90.46 99.0469 88.3C97.6169 85.08 96.4369 81.74 95.2169 78.26C94.2869 75.63 91.7969 73.86 89.0069 73.86H80.4269C76.7969 73.86 73.8469 70.91 73.8469 67.28V67.01C73.8469 63.38 76.7969 60.43 80.4269 60.43H88.9269C91.6169 60.43 94.0369 58.79 95.0369 56.29C96.6869 52.17 98.2569 48.24 99.6869 44.25C99.9769 43.44 99.3669 41.93 98.6869 41.22C94.9569 37.36 91.1669 33.55 87.4169 29.8C84.8369 27.22 84.8569 23.03 87.4569 20.47L87.6369 20.29C90.2369 17.72 94.4269 17.76 96.9769 20.38C99.5269 23 102.047 25.6 104.677 28.29C106.947 30.62 110.577 30.94 113.217 29.05C118.157 25.51 123.447 22.98 129.257 21.45C132.117 20.7 134.077 18.07 134.077 15.11V6.58002C134.077 2.95002 137.027 0 140.657 0H140.927C144.557 0 147.507 2.95002 147.507 6.58002V14.99C147.507 17.65 149.107 20.05 151.567 21.07C156.217 23 160.747 24.89 165.397 26.82C167.897 27.86 170.777 27.26 172.657 25.32C174.297 23.62 176.017 21.84 177.767 20.03C180.357 17.35 184.667 17.35 187.247 20.03C187.307 20.09 187.367 20.16 187.427 20.22C189.957 22.85 189.867 27.03 187.227 29.54C185.547 31.15 183.857 32.76 182.217 34.32C180.237 36.21 179.637 39.12 180.697 41.64C182.817 46.68 184.797 51.37 186.817 56.16C187.847 58.6 190.237 60.19 192.887 60.19H201.347C204.977 60.19 207.927 63.14 207.927 66.77V67.04C207.927 70.67 204.977 73.62 201.347 73.62H192.967C190.317 73.62 187.917 75.22 186.897 77.66C184.907 82.42 182.957 87.08 180.907 91.98C179.847 94.53 180.477 97.47 182.497 99.34C184.217 100.93 186.017 102.61 187.867 104.33C190.607 106.87 190.687 111.18 188.037 113.82L188.027 113.81ZM174.497 66.95C174.447 48.52 159.297 33.4 140.867 33.41C122.277 33.41 107.147 48.66 107.247 67.28C107.347 85.69 122.577 100.74 141.027 100.66C159.447 100.58 174.537 85.38 174.497 66.95Z" fill="#FFDE00"/>
</svg>
