<svg width="299" height="230" viewBox="0 0 299 230" fill="none" xmlns="http://www.w3.org/2000/svg">
<g clip-path="url(#clip0_73_23)">
<path d="M171.45 84.22C147.84 84.22 124.23 84.22 100.62 84.21C98.43 84.21 95.88 84.72 94.16 83.79C92.16 82.7 90.55 79.99 90.53 78.12C90.51 76.23 92 73.93 93.98 72.9C95.94 71.88 98.72 72.34 101.14 72.34C147.38 72.31 193.63 72.34 239.87 72.29C251.68 72.27 257.79 68.53 260.73 60C263.95 50.65 258.58 40.68 248.67 37.62C239.34 34.73 232.68 39.35 229.55 49.93C229.4 50.42 229.13 50.88 228.78 51.31C226.35 54.26 221.69 53.8 219.55 50.63C218.81 49.53 218.3 48.45 218.36 47.39C219.21 30.38 238.03 20.27 254.97 27.28C268.11 32.72 275.41 45.76 273.08 59.65C270.79 73.31 259.54 83.72 245.19 83.98C220.62 84.42 196.03 84.1 171.45 84.1C171.45 84.14 171.45 84.18 171.45 84.22Z" fill="#009FE3"/>
<path d="M170.63 145.02C194.97 145.02 219.31 144.85 243.64 145.08C258.99 145.23 271.01 155.8 273.14 170.3C275.27 184.81 267.02 198.1 253 202.74C236.45 208.22 219.22 198.16 218.3 182.02C218.25 181.23 218.5 180.42 218.91 179.6C220.66 176.11 225.34 175.1 228.27 177.7C228.88 178.24 229.31 178.81 229.46 179.46C231.11 186.79 234.77 191.42 242.27 192.35C249.44 193.25 256.93 188.67 260.03 181.95C263.17 175.14 262.42 166.9 256.37 162.73C251.71 159.52 245.39 157.17 239.79 157.11C193.55 156.67 96.9501 157.83 95.3201 156.66C94.8001 156.29 94.2701 155.95 93.7801 155.53C90.7301 152.9 90.6901 148.01 94.0601 145.82C94.5101 145.53 94.9701 145.34 95.4501 145.29C102.68 144.57 110.03 145 117.33 144.99C135.1 144.99 152.86 144.99 170.63 145V145.02Z" fill="#009FE3"/>
<path d="M224.34 108.77C223.65 108.61 223.01 108.27 222.39 107.82C219.53 105.74 219.29 101.55 221.85 99.11C222.71 98.29 223.59 97.69 224.53 97.59C232.48 96.74 240.61 97.64 248.57 96.87C273.44 94.45 290.97 70.95 286.49 46.58C282.14 22.91 255.94 6.61 232.58 13.5C216.97 18.1 207.49 28.67 204.74 44.93C204.46 46.6 204.37 50.52 202.1 51.95C199.09 53.85 195.13 53.74 193.45 50.61C193.21 50.16 193.05 49.7 193.03 49.23C192.36 36.42 197.24 25.42 205.9 16.2C221.08 0.0300045 244.92 -4.45999 265.71 4.65C288.11 14.46 300.37 35.15 298.67 60.3C297.26 81.2 280.82 100.93 259.08 106.77C251.9 108.7 228.28 109.65 224.35 108.76L224.34 108.77Z" fill="#009FE3"/>
<path d="M199.13 120.24C213.98 120.24 228.84 120.07 243.68 120.27C277.99 120.74 302.54 148.62 298.36 182.57C297.74 187.58 298.3 195.59 289.97 194.31C282.01 193.08 285.92 186.46 286.61 181.83C290.59 155.29 271.12 132.47 243.22 132.03C214.25 131.57 185.28 131.91 156.3 131.9C154.11 131.9 151.92 131.86 149.73 131.89C145.47 131.94 141.63 131.24 141.73 125.82C141.82 120.81 145.52 120.23 149.45 120.23C157.97 120.23 166.49 120.23 175.01 120.22C183.04 120.22 191.08 120.22 199.11 120.22V120.24H199.13Z" fill="#009FE3"/>
<path d="M120.6 109.02C97.26 109.02 73.92 109 50.58 109.04C46.21 109.04 41.57 108.9 41.52 103.24C41.48 97.62 46.04 97.26 50.46 97.26C97.38 97.29 144.31 97.28 191.23 97.28C191.47 97.28 191.72 97.28 191.96 97.28C196.37 97.28 200.86 97.81 200.66 103.52C200.48 108.73 196.21 109.06 192.07 109.06C168.24 109.03 144.42 109.04 120.59 109.03L120.6 109.02Z" fill="#009FE3"/>
<path d="M62.25 131.87C44.5 131.87 26.74 131.87 8.99 131.87C4.74 131.87 0 132.04 0 126.1C0 120.25 4.58 120.23 8.92 120.23C44.91 120.25 80.91 120.23 116.9 120.23C121.15 120.23 125.87 120.11 125.88 126.04C125.88 131.91 121.3 131.92 116.97 131.92C98.73 131.89 80.49 131.91 62.25 131.91C62.25 131.91 62.25 131.89 62.25 131.88V131.87Z" fill="#009FE3"/>
<path d="M243.67 229.37C243.48 229.37 243.29 229.37 243.1 229.37C215.83 228.53 193.66 207.88 192.85 182.95C192.72 178.96 192.44 174.58 197.86 174.07C203.13 173.57 203.92 177.39 204.43 181.67C207.95 211.28 238.14 226.51 264.42 212.04C266.12 211.1 267.69 209.32 269.42 209.19C269.93 209.15 270.44 209.15 270.96 209.17C275.18 209.36 278.19 213.71 276.49 217.58C276.26 218.11 275.96 218.55 275.56 218.87C266.18 226.32 254.97 228.99 243.66 229.37H243.67Z" fill="#009FE3"/>
</g>
<defs>
<clipPath id="clip0_73_23">
<rect width="298.83" height="229.37" fill="white"/>
</clipPath>
</defs>
</svg>
